<svg width="1452" height="1484" viewBox="0 0 1452 1484" fill="none" xmlns="http://www.w3.org/2000/svg" xmlns:xlink="http://www.w3.org/1999/xlink">
<path d="M1044.123,822.022C1044.123,1126.64 872.573,1373.582 660.953,1373.582C449.336,1373.582 277.785,1126.64 277.785,822.022C277.785,517.402 449.336,270.46 660.953,270.46C872.573,270.46 1044.123,517.402 1044.123,822.022Z" transform="rotate(-90 660.954 822.022)" stroke="#000000" stroke-width="1" stroke-miterlimit="3.999327"/>
<path d="M1108.657,757.489C1108.657,1062.107 937.107,1309.049 725.487,1309.049C513.87,1309.049 342.319,1062.107 342.319,757.489C342.319,452.869 513.87,205.927 725.487,205.927C937.107,205.927 1108.657,452.869 1108.657,757.489Z" transform="rotate(-90 725.488 757.488)" stroke="#000000" stroke-width="1" stroke-miterlimit="3.999327"/>
<path d="M1173.191,692.955C1173.191,997.573 1001.641,1244.515 790.021,1244.515C578.403,1244.515 406.853,997.573 406.853,692.955C406.853,388.335 578.403,141.393 790.021,141.393C1001.641,141.393 1173.191,388.335 1173.191,692.955Z" transform="rotate(-90 790.022 692.954)" stroke="#000000" stroke-width="1" stroke-miterlimit="3.999327"/>
<path d="M619.882,1163.882L622.139,1208.776L665.533,1197.049L623.534,1213.069L648.096,1250.715L619.882,1215.722L591.669,1250.715L616.23,1213.069L574.232,1197.049L617.625,1208.776L619.882,1163.882Z" transform="rotate(90 619.882 1211.882)" fill="#000000"/>
<path d="M1138,0L1141.009,59.858L1198.868,44.223L1142.869,65.582L1175.618,115.777L1138,69.12L1100.382,115.777L1133.131,65.582L1077.132,44.223L1134.991,59.858L1138,0Z" fill="#000000"/>
<path d="M273.569,1269.569L275.826,1314.463L319.22,1302.736L277.221,1318.756L301.783,1356.402L273.569,1321.409L245.356,1356.402L269.917,1318.756L227.919,1302.736L271.312,1314.463L273.569,1269.569Z" transform="rotate(300 273.569 1317.569)" fill="#000000"/>
</svg>
