<svg width="68" height="68" viewBox="0 0 68 68" fill="none" xmlns="http://www.w3.org/2000/svg" xmlns:xlink="http://www.w3.org/1999/xlink">
<path d="M52.766,21.77C52.313,21.33 51.677,21.13 51.056,21.233C50.433,21.334 49.895,21.726 49.606,22.287C48.612,24.218 47.349,25.992 45.864,27.561C46.012,26.428 46.086,25.288 46.086,24.145C46.086,21.952 45.792,19.695 45.212,17.436C43.305,10.017 38.305,3.743 31.494,0.222C30.901,-0.084 30.194,-0.073 29.611,0.251C29.027,0.576 28.645,1.17 28.593,1.836C28.062,8.578 24.589,14.712 19.06,18.668C18.986,18.721 18.914,18.775 18.841,18.828C18.691,18.938 18.549,19.042 18.416,19.129C18.396,19.143 18.375,19.157 18.355,19.172C14.877,21.662 12.008,24.981 10.056,28.771C8.074,32.626 7.068,36.764 7.068,41.067C7.068,43.26 7.362,45.517 7.942,47.776C11.001,59.683 21.717,68 34.001,68C48.851,68 60.932,55.918 60.932,41.067C60.932,33.744 58.032,26.891 52.766,21.77L52.766,21.77Z" fill="#FF5555"/>
<circle cx="32" cy="40" r="8" fill="#FFFFFF"/>
</svg>
