<svg width="68" height="68" viewBox="0 0 68 68" fill="none" xmlns="http://www.w3.org/2000/svg" xmlns:xlink="http://www.w3.org/1999/xlink">
<path d="M52.766,21.188C52.313,20.748 51.677,20.548 51.056,20.651C50.433,20.752 49.895,21.144 49.606,21.705C48.612,23.636 47.349,25.41 45.864,26.979C46.012,25.846 46.086,24.706 46.086,23.563C46.086,21.37 45.792,19.113 45.212,16.854C43.305,9.435 38.305,3.161 31.494,-0.36C30.901,-0.666 30.194,-0.655 29.611,-0.331C29.027,-0.006 28.645,0.588 28.593,1.254C28.062,7.996 24.589,14.13 19.06,18.086C18.986,18.139 18.914,18.193 18.841,18.246C18.691,18.356 18.549,18.46 18.416,18.547C18.396,18.561 18.375,18.575 18.355,18.59C14.877,21.08 12.008,24.399 10.056,28.189C8.074,32.044 7.068,36.182 7.068,40.485C7.068,42.678 7.362,44.935 7.942,47.194C11.001,59.101 21.717,67.418 34.001,67.418C48.851,67.418 60.932,55.336 60.932,40.485C60.932,33.162 58.032,26.309 52.766,21.188L52.766,21.188Z" fill="#FF5555"/>
<circle cx="32" cy="39.418" r="8" fill="#FFFFFF"/>
</svg>
