<svg width="1440" height="1440" viewBox="0 0 1440 1440" fill="none" xmlns="http://www.w3.org/2000/svg" xmlns:xlink="http://www.w3.org/1999/xlink">
<path d="M1035.488,782.906C1035.488,1085.006 865.356,1329.906 655.488,1329.906C445.62,1329.906 275.488,1085.006 275.488,782.906C275.488,480.806 445.62,235.906 655.488,235.906C865.356,235.906 1035.488,480.806 1035.488,782.906Z" transform="rotate(-90 655.488 782.906)" stroke="#FFFFFF" stroke-width="1" stroke-miterlimit="3.999327"/>
<path d="M1099.488,718.906C1099.488,1021.006 929.356,1265.906 719.488,1265.906C509.62,1265.906 339.488,1021.006 339.488,718.906C339.488,416.806 509.62,171.906 719.488,171.906C929.356,171.906 1099.488,416.806 1099.488,718.906Z" transform="rotate(-90 719.488 718.906)" stroke="#FFFFFF" stroke-width="1" stroke-miterlimit="3.999327"/>
<path d="M1163.488,654.906C1163.488,957.006 993.356,1201.906 783.488,1201.906C573.62,1201.906 403.488,957.006 403.488,654.906C403.488,352.806 573.62,107.906 783.488,107.906C993.356,107.906 1163.488,352.806 1163.488,654.906Z" transform="rotate(-90 783.488 654.906)" stroke="#FFFFFF" stroke-width="1" stroke-miterlimit="3.999327"/>
</svg>
