<svg width="1440" height="1440" viewBox="0 0 1440 1440" fill="none" xmlns="http://www.w3.org/2000/svg" xmlns:xlink="http://www.w3.org/1999/xlink">
<path d="M1035.488,783.488C1035.488,1085.588 865.356,1330.488 655.488,1330.488C445.62,1330.488 275.488,1085.588 275.488,783.488C275.488,481.388 445.62,236.488 655.488,236.488C865.356,236.488 1035.488,481.388 1035.488,783.488Z" transform="rotate(-90 655.488 783.488)" stroke="#000000" stroke-width="1" stroke-miterlimit="3.999327"/>
<path d="M1099.488,719.488C1099.488,1021.588 929.356,1266.488 719.488,1266.488C509.62,1266.488 339.488,1021.588 339.488,719.488C339.488,417.388 509.62,172.488 719.488,172.488C929.356,172.488 1099.488,417.388 1099.488,719.488Z" transform="rotate(-90 719.488 719.488)" stroke="#000000" stroke-width="1" stroke-miterlimit="3.999327"/>
<path d="M1163.488,655.488C1163.488,957.588 993.356,1202.488 783.488,1202.488C573.62,1202.488 403.488,957.588 403.488,655.488C403.488,353.388 573.62,108.488 783.488,108.488C993.356,108.488 1163.488,353.388 1163.488,655.488Z" transform="rotate(-90 783.488 655.488)" stroke="#000000" stroke-width="1" stroke-miterlimit="3.999327"/>
</svg>
