<svg width="1440" height="1440" viewBox="0 0 1440 1440" fill="none" xmlns="http://www.w3.org/2000/svg" xmlns:xlink="http://www.w3.org/1999/xlink">
<path d="M1035.488,783.44C1035.488,1085.54 865.356,1330.44 655.488,1330.44C445.62,1330.44 275.488,1085.54 275.488,783.44C275.488,481.34 445.62,236.44 655.488,236.44C865.356,236.44 1035.488,481.34 1035.488,783.44Z" transform="rotate(-90 655.488 783.44)" stroke="#000000" stroke-width="1" stroke-miterlimit="3.999327"/>
<path d="M1099.488,719.44C1099.488,1021.54 929.356,1266.44 719.488,1266.44C509.62,1266.44 339.488,1021.54 339.488,719.44C339.488,417.34 509.62,172.44 719.488,172.44C929.356,172.44 1099.488,417.34 1099.488,719.44Z" transform="rotate(-90 719.488 719.44)" stroke="#000000" stroke-width="1" stroke-miterlimit="3.999327"/>
<path d="M1163.488,655.44C1163.488,957.54 993.356,1202.44 783.488,1202.44C573.62,1202.44 403.488,957.54 403.488,655.44C403.488,353.34 573.62,108.44 783.488,108.44C993.356,108.44 1163.488,353.34 1163.488,655.44Z" transform="rotate(-90 783.488 655.44)" stroke="#000000" stroke-width="1" stroke-miterlimit="3.999327"/>
</svg>
