<svg width="1426" height="1426" viewBox="0 0 1426 1426" fill="none" xmlns="http://www.w3.org/2000/svg" xmlns:xlink="http://www.w3.org/1999/xlink">
<path d="M1026.15,775.841C1026.15,1075.217 857.554,1317.907 649.578,1317.907C441.601,1317.907 273.004,1075.217 273.004,775.841C273.004,476.465 441.601,233.773 649.578,233.773C857.554,233.773 1026.15,476.465 1026.15,775.841Z" transform="rotate(-90 649.577 775.84)" stroke="#000000" stroke-width="1.124" stroke-miterlimit="3.999327"/>
<path d="M1089.572,712.419C1089.572,1011.795 920.976,1254.485 713,1254.485C505.024,1254.485 336.426,1011.795 336.426,712.419C336.426,413.043 505.024,170.351 713,170.351C920.976,170.351 1089.572,413.043 1089.572,712.419Z" transform="rotate(-90 713 712.418)" stroke="#000000" stroke-width="1.124" stroke-miterlimit="3.999327"/>
<path d="M1152.995,648.995C1152.995,948.371 984.399,1191.061 776.423,1191.061C568.447,1191.061 399.849,948.371 399.849,648.995C399.849,349.619 568.447,106.927 776.423,106.927C984.399,106.927 1152.995,349.619 1152.995,648.995Z" transform="rotate(-90 776.423 648.995)" stroke="#000000" stroke-width="1.124" stroke-miterlimit="3.999327"/>
</svg>
