<svg width="1440" height="1440" viewBox="0 0 1440 1440" fill="none" xmlns="http://www.w3.org/2000/svg" xmlns:xlink="http://www.w3.org/1999/xlink">
<path d="M1035.488,784.464C1035.488,1086.564 865.356,1331.464 655.488,1331.464C445.62,1331.464 275.488,1086.564 275.488,784.464C275.488,482.364 445.62,237.464 655.488,237.464C865.356,237.464 1035.488,482.364 1035.488,784.464Z" transform="rotate(-90 655.488 784.464)" stroke="#000000" stroke-width="1" stroke-miterlimit="3.999327"/>
<path d="M1099.488,720.464C1099.488,1022.564 929.356,1267.464 719.488,1267.464C509.62,1267.464 339.488,1022.564 339.488,720.464C339.488,418.364 509.62,173.464 719.488,173.464C929.356,173.464 1099.488,418.364 1099.488,720.464Z" transform="rotate(-90 719.488 720.464)" stroke="#000000" stroke-width="1" stroke-miterlimit="3.999327"/>
<path d="M1163.488,656.464C1163.488,958.564 993.356,1203.464 783.488,1203.464C573.62,1203.464 403.488,958.564 403.488,656.464C403.488,354.364 573.62,109.464 783.488,109.464C993.356,109.464 1163.488,354.364 1163.488,656.464Z" transform="rotate(-90 783.488 656.464)" stroke="#000000" stroke-width="1" stroke-miterlimit="3.999327"/>
</svg>
