<svg width="44" height="44" viewBox="0 0 44 44" fill="none" xmlns="http://www.w3.org/2000/svg" xmlns:xlink="http://www.w3.org/1999/xlink">
<path d="M22,1.952L23.94,1.467C23.718,0.577 22.918,-0.048 22,-0.048C21.082,-0.048 20.282,0.577 20.06,1.467L22,1.952ZM42,21.952L42.485,23.892C43.375,23.67 44,22.87 44,21.952C44,21.034 43.375,20.234 42.485,20.012L42,21.952ZM22,41.952L20.06,42.437C20.282,43.328 21.082,43.952 22,43.952C22.918,43.952 23.718,43.328 23.94,42.437L22,41.952ZM2,21.952L1.515,20.012C0.625,20.234 0,21.034 0,21.952C0,22.87 0.625,23.67 1.515,23.892L2,21.952ZM31.588,24.555L31.103,22.615L31.103,22.615L31.588,24.555ZM27.714,25.846L28.792,27.531L27.714,25.846ZM24.603,31.54L22.663,31.055L22.663,31.055L24.603,31.54ZM25.894,27.666L24.209,26.588L25.894,27.666ZM24.603,12.364L22.663,12.849L22.663,12.849L24.603,12.364ZM25.894,16.238L27.578,15.16L25.894,16.238ZM27.714,18.058L26.636,19.743L27.714,18.058ZM12.412,19.349L12.897,21.289L12.897,21.289L12.412,19.349ZM16.286,18.058L17.364,19.743L17.364,19.743L16.286,18.058ZM19.397,12.364L21.337,12.849L21.337,12.849L19.397,12.364ZM18.106,16.238L19.791,17.316L19.791,17.316L18.106,16.238ZM19.397,31.54L17.457,32.025L17.457,32.025L19.397,31.54ZM18.106,27.666L16.422,28.744L16.422,28.744L18.106,27.666ZM16.286,25.846L15.208,27.531L16.286,25.846ZM23.94,41.467L21.337,31.055L17.457,32.025L20.06,42.437L23.94,41.467ZM12.897,22.615L2.485,20.012L1.515,23.892L11.927,26.495L12.897,22.615ZM2.485,23.892L12.897,21.289L11.927,17.409L1.515,20.012L2.485,23.892ZM21.337,12.849L23.94,2.437L20.06,1.467L17.457,11.879L21.337,12.849ZM20.06,2.437L22.663,12.849L26.543,11.879L23.94,1.467L20.06,2.437ZM31.103,21.289L41.515,23.892L42.485,20.012L32.073,17.409L31.103,21.289ZM41.515,20.012L31.103,22.615L32.073,26.495L42.485,23.892L41.515,20.012ZM22.663,31.055L20.06,41.467L23.94,42.437L26.543,32.025L22.663,31.055ZM31.103,22.615C29.208,23.089 27.804,23.414 26.636,24.161L28.792,27.531C29.277,27.22 29.905,27.037 32.073,26.495L31.103,22.615ZM26.543,32.025C27.085,29.857 27.268,29.229 27.578,28.744L24.209,26.588C23.462,27.756 23.137,29.16 22.663,31.055L26.543,32.025ZM26.636,24.161C25.661,24.785 24.833,25.613 24.209,26.588L27.578,28.744C27.89,28.257 28.304,27.843 28.792,27.531L26.636,24.161ZM22.663,12.849C23.137,14.745 23.462,16.149 24.209,17.316L27.578,15.16C27.268,14.675 27.085,14.047 26.543,11.879L22.663,12.849ZM32.073,17.409C29.905,16.867 29.277,16.684 28.792,16.374L26.636,19.743C27.804,20.49 29.208,20.816 31.103,21.289L32.073,17.409ZM24.209,17.316C24.833,18.291 25.661,19.119 26.636,19.743L28.792,16.374C28.304,16.062 27.89,15.648 27.578,15.16L24.209,17.316ZM12.897,21.289C14.792,20.816 16.196,20.49 17.364,19.743L15.208,16.374C14.723,16.684 14.095,16.867 11.927,17.409L12.897,21.289ZM17.457,11.879C16.915,14.047 16.732,14.675 16.422,15.16L19.791,17.316C20.538,16.149 20.863,14.745 21.337,12.849L17.457,11.879ZM17.364,19.743C18.339,19.119 19.167,18.291 19.791,17.316L16.422,15.16C16.11,15.648 15.696,16.062 15.208,16.374L17.364,19.743ZM21.337,31.055C20.863,29.16 20.538,27.756 19.791,26.588L16.422,28.744C16.732,29.229 16.915,29.857 17.457,32.025L21.337,31.055ZM11.927,26.495C14.095,27.037 14.723,27.22 15.208,27.531L17.364,24.161C16.196,23.414 14.792,23.089 12.897,22.615L11.927,26.495ZM19.791,26.588C19.167,25.613 18.339,24.785 17.364,24.161L15.208,27.531C15.696,27.843 16.11,28.257 16.422,28.744L19.791,26.588Z" fill="#FFFFFF"/>
</svg>
