<svg width="40" height="44" viewBox="0 0 40 44" fill="none" xmlns="http://www.w3.org/2000/svg" xmlns:xlink="http://www.w3.org/1999/xlink">
<path d="M24,42.976C25.105,42.976 26,42.081 26,40.976C26,39.871 25.105,38.976 24,38.976L24,42.976ZM16,38.976C14.895,38.976 14,39.871 14,40.976C14,42.081 14.895,42.976 16,42.976L16,38.976ZM20,2.976L20,0.976L20,2.976ZM8,14.976L6,14.976L8,14.976ZM37.077,32.779L35.885,31.173L35.885,31.173L37.077,32.779ZM35.301,28.187L36.999,27.13L35.301,28.187ZM37.477,32.058L35.484,31.894L37.477,32.058ZM4.699,28.187L3.001,27.13L3.001,27.13L4.699,28.187ZM2.523,32.058L0.529,32.221L2.523,32.058ZM2.924,32.779L1.732,34.385L2.924,32.779ZM24,38.976L16,38.976L16,42.976L24,42.976L24,38.976ZM34,14.976C34,11.263 32.525,7.702 29.9,5.077L27.071,7.905C28.946,9.78 30,12.324 30,14.976L34,14.976ZM29.9,5.077C27.274,2.451 23.713,0.976 20,0.976L20,4.976C22.652,4.976 25.196,6.03 27.071,7.905L29.9,5.077ZM20,0.976C16.287,0.976 12.726,2.451 10.101,5.077L12.929,7.905C14.804,6.03 17.348,4.976 20,4.976L20,0.976ZM10.101,5.077C7.475,7.702 6,11.263 6,14.976L10,14.976C10,12.324 11.054,9.78 12.929,7.905L10.101,5.077ZM6,14.976C6,20.801 4.536,24.664 3.001,27.13L6.397,29.243C8.346,26.112 10,21.511 10,14.976L6,14.976ZM6.778,34.976L33.222,34.976L33.222,30.976L6.778,30.976L6.778,34.976ZM36.999,27.13C35.464,24.664 34,20.801 34,14.976L30,14.976C30,21.511 31.654,26.112 33.603,29.243L36.999,27.13ZM33.222,34.976C34.4,34.976 35.345,34.976 36.025,34.95C36.363,34.937 36.697,34.915 36.992,34.871C37.174,34.844 37.76,34.763 38.268,34.385L35.885,31.173C36.116,31.002 36.316,30.941 36.358,30.929C36.42,30.91 36.444,30.909 36.406,30.915C36.327,30.926 36.163,30.941 35.869,30.953C35.287,30.976 34.437,30.976 33.222,30.976L33.222,34.976ZM33.603,29.243C34.346,30.438 34.875,31.288 35.217,31.883C35.39,32.183 35.487,32.368 35.534,32.473C35.558,32.525 35.551,32.516 35.535,32.464C35.529,32.445 35.458,32.219 35.484,31.894L39.471,32.221C39.504,31.813 39.415,31.479 39.369,31.323C39.312,31.134 39.241,30.96 39.176,30.819C39.048,30.535 38.874,30.216 38.683,29.885C38.298,29.217 37.725,28.297 36.999,27.13L33.603,29.243ZM38.268,34.385C38.489,34.222 38.856,33.928 39.124,33.445C39.393,32.962 39.448,32.494 39.471,32.221L35.484,31.894C35.477,31.986 35.479,31.77 35.628,31.502C35.776,31.234 35.958,31.118 35.885,31.173L38.268,34.385ZM3.001,27.13C2.275,28.297 1.702,29.217 1.317,29.885C1.126,30.216 0.953,30.535 0.824,30.819C0.76,30.96 0.688,31.134 0.631,31.323C0.585,31.479 0.496,31.813 0.529,32.221L4.516,31.894C4.543,32.219 4.471,32.445 4.465,32.464C4.45,32.516 4.442,32.525 4.466,32.473C4.513,32.368 4.61,32.183 4.783,31.883C5.126,31.288 5.654,30.438 6.397,29.243L3.001,27.13ZM6.778,30.976C5.563,30.976 4.713,30.976 4.131,30.953C3.837,30.941 3.673,30.926 3.594,30.915C3.556,30.909 3.58,30.91 3.642,30.929C3.685,30.941 3.885,31.002 4.115,31.173L1.732,34.385C2.241,34.763 2.826,34.844 3.008,34.871C3.303,34.915 3.638,34.937 3.975,34.95C4.655,34.976 5.6,34.976 6.778,34.976L6.778,30.976ZM0.529,32.221C0.552,32.494 0.608,32.962 0.876,33.445C1.144,33.928 1.512,34.222 1.732,34.385L4.115,31.173C4.042,31.118 4.224,31.234 4.372,31.502C4.521,31.77 4.523,31.986 4.516,31.894L0.529,32.221Z" fill="#FFFFFF"/>
</svg>
