<svg width="30" height="22" viewBox="0 0 30 22" fill="none" xmlns="http://www.w3.org/2000/svg" xmlns:xlink="http://www.w3.org/1999/xlink">
<path d="M2.063,6.167L3.37,6.167L2.063,6.167ZM2.347,3.412L3.512,4.005L2.347,3.412ZM6.245,1.985L6.245,0.677L6.245,1.985ZM3.49,2.269L2.896,1.105L2.896,1.105L3.49,2.269ZM6.245,20.283L6.245,18.976L6.245,18.976L6.245,20.283ZM3.49,19.998L4.083,18.834L3.49,19.998ZM2.063,16.101L0.755,16.101L2.063,16.101ZM2.347,18.856L1.183,19.449L2.347,18.856ZM27.919,18.856L26.754,18.262L27.919,18.856ZM24.021,20.283L24.021,21.59L24.021,21.59L24.021,20.283ZM26.776,19.998L26.183,18.834L26.183,18.834L26.776,19.998ZM27.919,3.412L29.083,2.818L27.919,3.412ZM24.021,1.985L24.021,3.292L24.021,1.985ZM26.776,2.269L26.183,3.434L26.776,2.269ZM17.747,8.52C18.469,8.52 19.054,7.935 19.054,7.213C19.054,6.491 18.469,5.906 17.747,5.906L17.747,8.52ZM12.519,13.748C11.797,13.748 11.212,14.333 11.212,15.055C11.212,15.777 11.797,16.362 12.519,16.362L12.519,13.748ZM16.44,5.906C16.44,5.184 15.855,4.599 15.133,4.599C14.411,4.599 13.826,5.184 13.826,5.906L16.44,5.906ZM13.826,7.213C13.826,7.935 14.411,8.52 15.133,8.52C15.855,8.52 16.44,7.935 16.44,7.213L13.826,7.213ZM16.44,15.055C16.44,14.333 15.855,13.748 15.133,13.748C14.411,13.748 13.826,14.333 13.826,15.055L16.44,15.055ZM13.826,16.362C13.826,17.084 14.411,17.669 15.133,17.669C15.855,17.669 16.44,17.084 16.44,16.362L13.826,16.362ZM22.975,9.827C22.253,9.827 21.668,10.412 21.668,11.134C21.668,11.856 22.253,12.441 22.975,12.441L22.975,9.827ZM22.988,12.441C23.71,12.441 24.295,11.856 24.295,11.134C24.295,10.412 23.71,9.827 22.988,9.827L22.988,12.441ZM7.291,9.827C6.569,9.827 5.984,10.412 5.984,11.134C5.984,11.856 6.569,12.441 7.291,12.441L7.291,9.827ZM7.304,12.441C8.026,12.441 8.611,11.856 8.611,11.134C8.611,10.412 8.026,9.827 7.304,9.827L7.304,12.441ZM26.896,6.167L26.896,16.101L29.51,16.101L29.51,6.167L26.896,6.167ZM24.021,18.976L6.245,18.976L6.245,21.59L24.021,21.59L24.021,18.976ZM3.37,16.101L3.37,6.167L0.755,6.167L0.755,16.101L3.37,16.101ZM6.245,3.292L24.021,3.292L24.021,0.677L6.245,0.677L6.245,3.292ZM3.37,6.167C3.37,5.413 3.371,4.927 3.401,4.557C3.43,4.201 3.479,4.07 3.512,4.005L1.183,2.818C0.931,3.313 0.838,3.827 0.795,4.344C0.754,4.845 0.755,5.457 0.755,6.167L3.37,6.167ZM6.245,0.677C5.535,0.677 4.923,0.676 4.422,0.717C3.905,0.76 3.391,0.853 2.896,1.105L4.083,3.434C4.148,3.401 4.28,3.352 4.635,3.323C5.005,3.293 5.491,3.292 6.245,3.292L6.245,0.677ZM3.512,4.005C3.637,3.759 3.837,3.559 4.083,3.434L2.896,1.105C2.159,1.481 1.559,2.081 1.183,2.818L3.512,4.005ZM6.245,18.976C5.491,18.976 5.005,18.975 4.635,18.945C4.279,18.916 4.148,18.867 4.083,18.834L2.896,21.163C3.391,21.415 3.905,21.508 4.422,21.55C4.923,21.591 5.535,21.59 6.245,21.59L6.245,18.976ZM0.755,16.101C0.755,16.811 0.754,17.422 0.795,17.924C0.838,18.441 0.931,18.955 1.183,19.449L3.512,18.262C3.479,18.198 3.43,18.066 3.401,17.711C3.371,17.341 3.37,16.854 3.37,16.101L0.755,16.101ZM4.083,18.834C3.837,18.708 3.637,18.508 3.512,18.262L1.183,19.449C1.559,20.187 2.159,20.787 2.896,21.163L4.083,18.834ZM26.896,16.101C26.896,16.854 26.895,17.341 26.865,17.711C26.836,18.066 26.787,18.198 26.754,18.262L29.083,19.449C29.335,18.955 29.428,18.441 29.471,17.924C29.512,17.422 29.51,16.811 29.51,16.101L26.896,16.101ZM24.021,21.59C24.731,21.59 25.343,21.591 25.844,21.55C26.361,21.508 26.875,21.415 27.37,21.163L26.183,18.834C26.118,18.867 25.986,18.916 25.631,18.945C25.261,18.975 24.775,18.976 24.021,18.976L24.021,21.59ZM26.754,18.262C26.629,18.508 26.429,18.708 26.183,18.834L27.37,21.163C28.107,20.787 28.707,20.187 29.083,19.449L26.754,18.262ZM29.51,6.167C29.51,5.457 29.512,4.845 29.471,4.344C29.428,3.827 29.335,3.313 29.083,2.818L26.754,4.005C26.787,4.07 26.836,4.201 26.865,4.557C26.895,4.927 26.896,5.413 26.896,6.167L29.51,6.167ZM24.021,3.292C24.775,3.292 25.261,3.293 25.631,3.323C25.986,3.352 26.118,3.401 26.183,3.434L27.37,1.105C26.875,0.853 26.361,0.76 25.844,0.717C25.343,0.676 24.731,0.677 24.021,0.677L24.021,3.292ZM29.083,2.818C28.707,2.081 28.107,1.481 27.37,1.105L26.183,3.434C26.429,3.559 26.629,3.759 26.754,4.005L29.083,2.818ZM17.747,5.906L14.479,5.906L14.479,8.52L17.747,8.52L17.747,5.906ZM14.479,12.441L15.786,12.441L15.786,9.827L14.479,9.827L14.479,12.441ZM15.786,13.748L12.519,13.748L12.519,16.362L15.786,16.362L15.786,13.748ZM16.44,13.094C16.44,13.455 16.147,13.748 15.786,13.748L15.786,16.362C17.591,16.362 19.054,14.899 19.054,13.094L16.44,13.094ZM15.786,12.441C16.147,12.441 16.44,12.733 16.44,13.094L19.054,13.094C19.054,11.29 17.591,9.827 15.786,9.827L15.786,12.441ZM11.212,9.173C11.212,10.978 12.675,12.441 14.479,12.441L14.479,9.827C14.119,9.827 13.826,9.534 13.826,9.173L11.212,9.173ZM14.479,5.906C12.675,5.906 11.212,7.369 11.212,9.173L13.826,9.173C13.826,8.812 14.119,8.52 14.479,8.52L14.479,5.906ZM13.826,5.906L13.826,7.213L16.44,7.213L16.44,5.906L13.826,5.906ZM13.826,15.055L13.826,16.362L16.44,16.362L16.44,15.055L13.826,15.055ZM22.975,12.441L22.988,12.441L22.988,9.827L22.975,9.827L22.975,12.441ZM22.322,11.134C22.322,10.773 22.614,10.48 22.975,10.48L22.975,13.094C24.058,13.094 24.936,12.217 24.936,11.134L22.322,11.134ZM22.975,10.48C23.336,10.48 23.629,10.773 23.629,11.134L21.015,11.134C21.015,12.217 21.892,13.094 22.975,13.094L22.975,10.48ZM23.629,11.134C23.629,11.495 23.336,11.787 22.975,11.787L22.975,9.173C21.892,9.173 21.015,10.051 21.015,11.134L23.629,11.134ZM22.975,11.787C22.614,11.787 22.322,11.495 22.322,11.134L24.936,11.134C24.936,10.051 24.058,9.173 22.975,9.173L22.975,11.787ZM7.291,12.441L7.304,12.441L7.304,9.827L7.291,9.827L7.291,12.441ZM6.637,11.134C6.637,10.773 6.93,10.48 7.291,10.48L7.291,13.094C8.373,13.094 9.251,12.217 9.251,11.134L6.637,11.134ZM7.291,10.48C7.652,10.48 7.944,10.773 7.944,11.134L5.33,11.134C5.33,12.217 6.208,13.094 7.291,13.094L7.291,10.48ZM7.944,11.134C7.944,11.495 7.652,11.787 7.291,11.787L7.291,9.173C6.208,9.173 5.33,10.051 5.33,11.134L7.944,11.134ZM7.291,11.787C6.93,11.787 6.637,11.495 6.637,11.134L9.251,11.134C9.251,10.051 8.373,9.173 7.291,9.173L7.291,11.787Z" transform="rotate(-56 15.133 11.134)" fill="#FF5555"/>
</svg>
