<svg width="30" height="28" viewBox="0 0 30 28" fill="none" xmlns="http://www.w3.org/2000/svg" xmlns:xlink="http://www.w3.org/1999/xlink">
<path d="M21.263,0.499L21.71,-0.73L21.263,0.499ZM22.044,1.28L23.273,0.833L22.044,1.28ZM7.299,0.499L6.852,-0.73L7.299,0.499ZM6.518,1.28L5.289,0.833L6.518,1.28ZM22.123,1.727C21.401,1.727 20.816,2.312 20.816,3.034C20.816,3.756 21.401,4.341 22.123,4.341L22.123,1.727ZM27.218,7.97L28.48,8.308L28.48,8.308L27.218,7.97ZM22.123,9.569C21.401,9.569 20.816,10.154 20.816,10.876C20.816,11.598 21.401,12.183 22.123,12.183L22.123,9.569ZM24.445,10.743L24.783,12.005L24.783,12.005L24.445,10.743ZM26.545,3.133L27.045,1.926L27.045,1.926L26.545,3.133ZM27.252,3.841L28.46,3.341L28.46,3.341L27.252,3.841ZM6.439,4.341C7.161,4.341 7.746,3.756 7.746,3.034C7.746,2.312 7.161,1.727 6.439,1.727L6.439,4.341ZM1.344,7.97L2.607,7.632L2.607,7.632L1.344,7.97ZM6.439,12.183C7.161,12.183 7.746,11.598 7.746,10.876C7.746,10.154 7.161,9.569 6.439,9.569L6.439,12.183ZM4.117,10.743L3.779,12.005L3.779,12.005L4.117,10.743ZM2.017,3.133L1.517,1.926L1.517,1.926L2.017,3.133ZM1.31,3.841L0.103,3.341L0.103,3.341L1.31,3.841ZM12.974,21.332C12.974,22.054 13.559,22.64 14.281,22.64C15.003,22.64 15.588,22.054 15.588,21.332L12.974,21.332ZM8.327,1.727L20.235,1.727L20.235,-0.887L8.327,-0.887L8.327,1.727ZM20.816,2.308L20.816,9.569L23.43,9.569L23.43,2.308L20.816,2.308ZM7.746,9.569L7.746,2.308L5.132,2.308L5.132,9.569L7.746,9.569ZM14.281,16.104C10.672,16.104 7.746,13.178 7.746,9.569L5.132,9.569C5.132,14.622 9.228,18.718 14.281,18.718L14.281,16.104ZM20.816,9.569C20.816,13.178 17.89,16.104 14.281,16.104L14.281,18.718C19.334,18.718 23.43,14.622 23.43,9.569L20.816,9.569ZM20.235,1.727C20.522,1.727 20.678,1.727 20.792,1.734C20.895,1.741 20.876,1.749 20.816,1.727L21.71,-0.73C21.223,-0.907 20.663,-0.887 20.235,-0.887L20.235,1.727ZM23.43,2.308C23.43,1.881 23.45,1.321 23.273,0.833L20.816,1.727C20.794,1.667 20.802,1.648 20.809,1.751C20.816,1.865 20.816,2.021 20.816,2.308L23.43,2.308ZM20.816,1.727L20.816,1.727L23.273,0.833C23.008,0.107 22.436,-0.465 21.71,-0.73L20.816,1.727ZM8.327,-0.887C7.899,-0.887 7.339,-0.907 6.852,-0.73L7.746,1.727C7.686,1.749 7.667,1.741 7.77,1.734C7.884,1.727 8.04,1.727 8.327,1.727L8.327,-0.887ZM7.746,2.308C7.746,2.021 7.746,1.865 7.753,1.751C7.76,1.648 7.768,1.667 7.746,1.727L5.289,0.833C5.112,1.321 5.132,1.881 5.132,2.308L7.746,2.308ZM6.852,-0.73C6.126,-0.465 5.554,0.107 5.289,0.833L7.746,1.727L7.746,1.727L6.852,-0.73ZM12.393,22.64L16.169,22.64L16.169,20.025L12.393,20.025L12.393,22.64ZM20.235,25.254L8.327,25.254L8.327,27.868L20.235,27.868L20.235,25.254ZM8.327,25.254C8.728,25.254 9.053,25.579 9.053,25.98L6.439,25.98C6.439,27.022 7.284,27.868 8.327,27.868L8.327,25.254ZM19.509,25.98C19.509,25.579 19.834,25.254 20.235,25.254L20.235,27.868C21.278,27.868 22.123,27.022 22.123,25.98L19.509,25.98ZM16.169,22.64C18.014,22.64 19.509,24.135 19.509,25.98L22.123,25.98C22.123,22.691 19.457,20.025 16.169,20.025L16.169,22.64ZM12.393,20.025C9.105,20.025 6.439,22.691 6.439,25.98L9.053,25.98C9.053,24.135 10.548,22.64 12.393,22.64L12.393,20.025ZM22.123,4.341L25.391,4.341L25.391,1.727L22.123,1.727L22.123,4.341ZM26.044,4.994L26.044,5.648L28.658,5.648L28.658,4.994L26.044,4.994ZM26.044,5.648C26.044,6.948 26.033,7.341 25.955,7.632L28.48,8.308C28.67,7.601 28.658,6.779 28.658,5.648L26.044,5.648ZM22.123,12.183C23.255,12.183 24.077,12.194 24.783,12.005L24.107,9.48C23.816,9.558 23.423,9.569 22.123,9.569L22.123,12.183ZM25.955,7.632C25.714,8.534 25.009,9.238 24.107,9.48L24.783,12.005C26.588,11.522 27.997,10.112 28.48,8.308L25.955,7.632ZM25.391,4.341C25.713,4.341 25.89,4.342 26.017,4.35C26.133,4.358 26.11,4.368 26.044,4.341L27.045,1.926C26.739,1.799 26.444,1.759 26.195,1.742C25.958,1.726 25.678,1.727 25.391,1.727L25.391,4.341ZM28.658,4.994C28.658,4.708 28.659,4.427 28.643,4.19C28.626,3.942 28.586,3.646 28.46,3.341L26.044,4.341C26.017,4.275 26.027,4.253 26.035,4.368C26.044,4.496 26.044,4.672 26.044,4.994L28.658,4.994ZM26.044,4.341L26.044,4.341L28.46,3.341C28.194,2.7 27.685,2.191 27.045,1.926L26.044,4.341ZM6.439,1.727L3.171,1.727L3.171,4.341L6.439,4.341L6.439,1.727ZM-0.096,4.994L-0.096,5.648L2.518,5.648L2.518,4.994L-0.096,4.994ZM-0.096,5.648C-0.096,6.779 -0.108,7.601 0.082,8.308L2.607,7.632C2.529,7.341 2.518,6.948 2.518,5.648L-0.096,5.648ZM6.439,9.569C5.139,9.569 4.746,9.558 4.455,9.48L3.779,12.005C4.485,12.194 5.307,12.183 6.439,12.183L6.439,9.569ZM0.082,8.308C0.565,10.112 1.974,11.522 3.779,12.005L4.455,9.48C3.553,9.238 2.848,8.534 2.607,7.632L0.082,8.308ZM3.171,1.727C2.885,1.727 2.604,1.726 2.367,1.742C2.118,1.759 1.823,1.799 1.517,1.926L2.518,4.341C2.452,4.368 2.429,4.358 2.545,4.35C2.672,4.342 2.849,4.341 3.171,4.341L3.171,1.727ZM2.518,4.994C2.518,4.672 2.518,4.496 2.527,4.368C2.535,4.253 2.545,4.275 2.518,4.341L0.103,3.341C-0.024,3.646 -0.064,3.942 -0.081,4.19C-0.097,4.427 -0.096,4.708 -0.096,4.994L2.518,4.994ZM1.517,1.926C0.877,2.191 0.368,2.7 0.103,3.341L2.518,4.341L2.518,4.341L1.517,1.926ZM12.974,17.411L12.974,21.332L15.588,21.332L15.588,17.411L12.974,17.411Z" transform="rotate(-56 14.281 13.49)" fill="#FF5555"/>
</svg>
