<svg width="44" height="44" viewBox="0 0 44 44" fill="none" xmlns="http://www.w3.org/2000/svg" xmlns:xlink="http://www.w3.org/1999/xlink">
<path d="M22,2L23.94,1.515C23.718,0.625 22.918,0 22,0C21.082,0 20.282,0.625 20.06,1.515L22,2ZM42,22L42.485,23.94C43.375,23.718 44,22.918 44,22C44,21.082 43.375,20.282 42.485,20.06L42,22ZM22,42L20.06,42.485C20.282,43.375 21.082,44 22,44C22.918,44 23.718,43.375 23.94,42.485L22,42ZM2,22L1.515,20.06C0.625,20.282 0,21.082 0,22C0,22.918 0.625,23.718 1.515,23.94L2,22ZM31.588,24.603L31.103,22.663L31.103,22.663L31.588,24.603ZM27.714,25.894L28.792,27.578L27.714,25.894ZM24.603,31.588L22.663,31.103L22.663,31.103L24.603,31.588ZM25.894,27.714L24.209,26.636L25.894,27.714ZM24.603,12.412L22.663,12.897L22.663,12.897L24.603,12.412ZM25.894,16.286L27.578,15.208L25.894,16.286ZM27.714,18.106L26.636,19.791L27.714,18.106ZM12.412,19.397L12.897,21.337L12.897,21.337L12.412,19.397ZM16.286,18.106L17.364,19.791L17.364,19.791L16.286,18.106ZM19.397,12.412L21.337,12.897L21.337,12.897L19.397,12.412ZM18.106,16.286L19.791,17.364L19.791,17.364L18.106,16.286ZM19.397,31.588L17.457,32.073L17.457,32.073L19.397,31.588ZM18.106,27.714L16.422,28.792L16.422,28.792L18.106,27.714ZM16.286,25.894L15.208,27.578L16.286,25.894ZM23.94,41.515L21.337,31.103L17.457,32.073L20.06,42.485L23.94,41.515ZM12.897,22.663L2.485,20.06L1.515,23.94L11.927,26.543L12.897,22.663ZM2.485,23.94L12.897,21.337L11.927,17.457L1.515,20.06L2.485,23.94ZM21.337,12.897L23.94,2.485L20.06,1.515L17.457,11.927L21.337,12.897ZM20.06,2.485L22.663,12.897L26.543,11.927L23.94,1.515L20.06,2.485ZM31.103,21.337L41.515,23.94L42.485,20.06L32.073,17.457L31.103,21.337ZM41.515,20.06L31.103,22.663L32.073,26.543L42.485,23.94L41.515,20.06ZM22.663,31.103L20.06,41.515L23.94,42.485L26.543,32.073L22.663,31.103ZM31.103,22.663C29.208,23.137 27.804,23.462 26.636,24.209L28.792,27.578C29.277,27.268 29.905,27.085 32.073,26.543L31.103,22.663ZM26.543,32.073C27.085,29.905 27.268,29.277 27.578,28.792L24.209,26.636C23.462,27.804 23.137,29.208 22.663,31.103L26.543,32.073ZM26.636,24.209C25.661,24.833 24.833,25.661 24.209,26.636L27.578,28.792C27.89,28.304 28.304,27.89 28.792,27.578L26.636,24.209ZM22.663,12.897C23.137,14.792 23.462,16.196 24.209,17.364L27.578,15.208C27.268,14.723 27.085,14.095 26.543,11.927L22.663,12.897ZM32.073,17.457C29.905,16.915 29.277,16.732 28.792,16.422L26.636,19.791C27.804,20.538 29.208,20.863 31.103,21.337L32.073,17.457ZM24.209,17.364C24.833,18.339 25.661,19.167 26.636,19.791L28.792,16.422C28.304,16.11 27.89,15.696 27.578,15.208L24.209,17.364ZM12.897,21.337C14.792,20.863 16.196,20.538 17.364,19.791L15.208,16.422C14.723,16.732 14.095,16.915 11.927,17.457L12.897,21.337ZM17.457,11.927C16.915,14.095 16.732,14.723 16.422,15.208L19.791,17.364C20.538,16.196 20.863,14.792 21.337,12.897L17.457,11.927ZM17.364,19.791C18.339,19.167 19.167,18.339 19.791,17.364L16.422,15.208C16.11,15.696 15.696,16.11 15.208,16.422L17.364,19.791ZM21.337,31.103C20.863,29.208 20.538,27.804 19.791,26.636L16.422,28.792C16.732,29.277 16.915,29.905 17.457,32.073L21.337,31.103ZM11.927,26.543C14.095,27.085 14.723,27.268 15.208,27.578L17.364,24.209C16.196,23.462 14.792,23.137 12.897,22.663L11.927,26.543ZM19.791,26.636C19.167,25.661 18.339,24.833 17.364,24.209L15.208,27.578C15.696,27.89 16.11,28.304 16.422,28.792L19.791,26.636Z" fill="#FF5555"/>
</svg>
