<svg width="40" height="44" viewBox="0 0 40 44" fill="none" xmlns="http://www.w3.org/2000/svg" xmlns:xlink="http://www.w3.org/1999/xlink">
<path d="M22,3C22,1.895 21.105,1 20,1C18.895,1 18,1.895 18,3L22,3ZM21.554,22.863L22.525,21.115L22.525,21.115L21.554,22.863ZM36.029,33.193C36.994,33.729 38.212,33.381 38.748,32.416C39.285,31.45 38.937,30.233 37.971,29.696L36.029,33.193ZM2.029,29.696C1.063,30.233 0.715,31.45 1.252,32.416C1.788,33.381 3.006,33.729 3.971,33.193L2.029,29.696ZM18.446,22.863L19.417,24.612L19.417,24.612L18.446,22.863ZM20.403,22.329L20,24.288L20,24.288L20.403,22.329ZM19.597,22.329L20,24.288L20,24.288L19.597,22.329ZM37.899,31.451L39.798,32.078L37.899,31.451ZM36.354,32.914L37.325,34.663L37.325,34.663L36.354,32.914ZM37.471,32.179L38.941,33.534L38.941,33.534L37.471,32.179ZM18.446,41.137L17.475,42.885L18.446,41.137ZM19.597,41.671L20,39.712L19.597,41.671ZM21.554,41.137L20.583,39.388L20.583,39.388L21.554,41.137ZM20.403,41.671L20.806,43.63L20.403,41.671ZM2.101,12.549L0.202,11.922L2.101,12.549ZM3.646,11.086L4.617,12.834L4.617,12.834L3.646,11.086ZM2.529,11.822L1.059,10.466L2.529,11.822ZM2.101,31.451L0.202,32.078L2.101,31.451ZM3.646,32.914L2.675,34.663L3.646,32.914ZM2.529,32.179L4,30.823L2.529,32.179ZM36.354,11.086L37.325,9.337L37.325,9.337L36.354,11.086ZM37.471,11.822L36,13.177L37.471,11.822ZM37.899,12.549L39.798,11.922L39.798,11.922L37.899,12.549ZM21.554,2.863L20.583,4.612L21.554,2.863ZM20.403,2.329L20,4.288L20.403,2.329ZM18.446,2.863L17.475,1.115L17.475,1.115L18.446,2.863ZM19.597,2.329L20,4.288L19.597,2.329ZM37.971,14.304C38.937,13.767 39.285,12.55 38.748,11.584C38.212,10.619 36.994,10.271 36.029,10.807L37.971,14.304ZM3.971,10.807C3.006,10.271 1.788,10.619 1.252,11.584C0.715,12.55 1.063,13.767 2.029,14.304L3.971,10.807ZM18,41C18,42.105 18.895,43 20,43C21.105,43 22,42.105 22,41L18,41ZM18,3L18,22L22,22L22,3L18,3ZM20.583,24.612L36.029,33.193L37.971,29.696L22.525,21.115L20.583,24.612ZM3.971,33.193L19.417,24.612L17.475,21.115L2.029,29.696L3.971,33.193ZM22.525,21.115C22.071,20.863 21.478,20.508 20.806,20.37L20,24.288C19.932,24.274 19.914,24.257 20.01,24.303C20.125,24.358 20.28,24.443 20.583,24.612L22.525,21.115ZM19.417,24.612C19.72,24.443 19.875,24.358 19.99,24.303C20.086,24.257 20.068,24.274 20,24.288L19.194,20.37C18.522,20.508 17.929,20.863 17.475,21.115L19.417,24.612ZM20.806,20.37C20.274,20.261 19.726,20.261 19.194,20.37L20,24.288L20,24.288L20.806,20.37ZM20.583,4.612L35.383,12.834L37.325,9.337L22.525,1.115L20.583,4.612ZM4,30.117L4,13.883L0,13.883L0,30.117L4,30.117ZM4.617,12.834L19.417,4.612L17.475,1.115L2.675,9.337L4.617,12.834ZM19.417,39.388L4.617,31.166L2.675,34.663L17.475,42.885L19.417,39.388ZM36,13.883L36,30.117L40,30.117L40,13.883L36,13.883ZM35.383,31.166L20.583,39.388L22.525,42.885L37.325,34.663L35.383,31.166ZM36,30.117C36,30.483 35.999,30.67 35.991,30.806C35.984,30.919 35.977,30.894 36,30.823L39.798,32.078C40.024,31.394 40,30.665 40,30.117L36,30.117ZM37.325,34.663C37.804,34.397 38.453,34.064 38.941,33.534L36,30.823C36.05,30.769 36.076,30.763 35.981,30.824C35.866,30.897 35.703,30.988 35.383,31.166L37.325,34.663ZM36,30.823L36,30.823L38.941,33.534C39.327,33.115 39.619,32.619 39.798,32.078L36,30.823ZM17.475,42.885C17.929,43.137 18.522,43.492 19.194,43.63L20,39.712C20.068,39.726 20.086,39.743 19.99,39.698C19.875,39.642 19.72,39.557 19.417,39.388L17.475,42.885ZM20.583,39.388C20.28,39.557 20.125,39.642 20.01,39.698C19.914,39.743 19.932,39.726 20,39.712L20.806,43.63C21.478,43.492 22.071,43.137 22.525,42.885L20.583,39.388ZM19.194,43.63C19.726,43.739 20.274,43.739 20.806,43.63L20,39.712L20,39.712L19.194,43.63ZM4,13.883C4,13.517 4.001,13.33 4.009,13.194C4.016,13.081 4.023,13.106 4,13.177L0.202,11.922C-0.024,12.606 0,13.335 0,13.883L4,13.883ZM2.675,9.337C2.196,9.603 1.547,9.937 1.059,10.466L4,13.177C3.95,13.231 3.924,13.237 4.019,13.176C4.134,13.103 4.297,13.012 4.617,12.834L2.675,9.337ZM4,13.177L4,13.177L1.059,10.466C0.673,10.885 0.381,11.381 0.202,11.922L4,13.177ZM0,30.117C0,30.665 -0.024,31.394 0.202,32.078L4,30.823C4.023,30.894 4.016,30.919 4.009,30.806C4.001,30.67 4,30.483 4,30.117L0,30.117ZM4.617,31.166C4.297,30.988 4.134,30.897 4.019,30.824C3.924,30.763 3.95,30.769 4,30.823L1.059,33.534C1.547,34.064 2.196,34.397 2.675,34.663L4.617,31.166ZM0.202,32.078C0.381,32.619 0.673,33.115 1.059,33.534L4,30.823L4,30.823L0.202,32.078ZM35.383,12.834C35.703,13.012 35.866,13.103 35.981,13.176C36.076,13.237 36.05,13.231 36,13.177L38.941,10.466C38.453,9.937 37.804,9.603 37.325,9.337L35.383,12.834ZM40,13.883C40,13.335 40.024,12.606 39.798,11.922L36,13.177C35.977,13.106 35.984,13.081 35.991,13.194C35.999,13.33 36,13.517 36,13.883L40,13.883ZM36,13.177L36,13.177L39.798,11.922C39.619,11.381 39.327,10.885 38.941,10.466L36,13.177ZM22.525,1.115C22.071,0.863 21.478,0.508 20.806,0.37L20,4.288C19.932,4.274 19.914,4.257 20.01,4.303C20.125,4.358 20.28,4.443 20.583,4.612L22.525,1.115ZM19.417,4.612C19.72,4.443 19.875,4.358 19.99,4.303C20.086,4.257 20.068,4.274 20,4.288L19.194,0.37C18.522,0.508 17.929,0.863 17.475,1.115L19.417,4.612ZM20.806,0.37C20.274,0.261 19.726,0.261 19.194,0.37L20,4.288L20,4.288L20.806,0.37ZM36.029,10.807L19.029,20.252L20.971,23.748L37.971,14.304L36.029,10.807ZM20.971,20.252L3.971,10.807L2.029,14.304L19.029,23.748L20.971,20.252ZM18,22L18,41L22,41L22,22L18,22Z" fill="#FF5555"/>
</svg>
