<svg width="72" height="54" viewBox="0 0 72 54" fill="none" xmlns="http://www.w3.org/2000/svg" xmlns:xlink="http://www.w3.org/1999/xlink">
<path d="M25.485,-0.244L29.256,6.703C27.139,9.699 25.154,13.036 23.301,16.714C21.581,20.392 20.589,24.205 20.324,28.155L31.241,30.198L31.241,53.694L0.872,53.694L0.872,36.941C0.872,27.27 3.056,19.506 7.422,13.649C11.921,7.656 17.942,3.025 25.485,-0.244ZM64.785,-0.244L68.557,6.703C66.439,9.699 64.455,13.036 62.602,16.714C60.882,20.392 59.889,24.205 59.625,28.155L70.541,30.198L70.541,53.694L40.173,53.694L40.173,36.941C40.173,27.27 42.356,19.506 46.723,13.649C51.222,7.656 57.243,3.025 64.785,-0.244Z" fill="#FFFFFF"/>
</svg>
