<svg width="26" height="34" viewBox="0 0 26 34" fill="none" xmlns="http://www.w3.org/2000/svg" xmlns:xlink="http://www.w3.org/1999/xlink">
<path d="M20.051,9.777C20.347,9.728 20.65,9.824 20.866,10.033C23.375,12.473 24.757,15.739 24.757,19.229C24.757,26.305 19,32.062 11.924,32.062C6.071,32.062 0.965,28.099 -0.493,22.425C-0.77,21.349 -0.91,20.273 -0.91,19.229C-0.91,17.178 -0.431,15.206 0.514,13.369C1.444,11.563 2.812,9.982 4.469,8.795C4.478,8.788 4.488,8.782 4.498,8.775C4.559,8.735 4.624,8.687 4.693,8.636L4.7,8.631C4.707,8.626 4.714,8.621 4.721,8.616C4.749,8.596 4.777,8.575 4.804,8.555C7.439,6.67 9.094,3.747 9.347,0.534C9.372,0.217 9.554,-0.066 9.832,-0.221C10.11,-0.375 10.447,-0.38 10.729,-0.234C13.975,1.443 16.358,4.433 17.266,7.968C17.543,9.044 17.683,10.12 17.683,11.165C17.683,11.71 17.647,12.253 17.577,12.793C18.285,12.045 18.886,11.2 19.36,10.28C19.498,10.012 19.754,9.826 20.051,9.777ZM11.321,23.326C13.4,23.326 15.086,21.64 15.086,19.561C15.086,17.482 13.4,15.796 11.321,15.796C9.241,15.796 7.555,17.482 7.555,19.561C7.555,21.64 9.241,23.326 11.321,23.326Z" clip-rule="evenodd" fill-rule="evenodd" transform="rotate(0 11.924 15.861)" fill="#FFFFFF"/>
</svg>
