<svg width="134" height="60" viewBox="0 0 134 60" fill="none" xmlns="http://www.w3.org/2000/svg" xmlns:xlink="http://www.w3.org/1999/xlink">
<path d="M13.173,45.678C15.244,45.678 17.077,45.299 18.671,44.542C20.265,43.745 21.48,42.55 22.317,40.956L22.317,44.961L30.684,44.961L30.684,12.329L21.719,12.329L21.719,31.394C21.719,33.267 21.161,34.781 20.046,35.936C18.93,37.052 17.496,37.609 15.743,37.609C13.989,37.609 12.555,37.052 11.439,35.936C10.324,34.781 9.766,33.267 9.766,31.394L9.766,12.329L0.801,12.329L0.801,32.111C0.801,36.175 1.857,39.462 3.969,41.972C6.12,44.443 9.188,45.678 13.173,45.678Z" fill="#000000"/>
<path d="M37.236,9.4L46.201,9.4L46.201,0.435L37.236,0.435L37.236,9.4ZM37.236,44.961L46.201,44.961L46.201,12.329L37.236,12.329L37.236,44.961Z" fill="#000000"/>
<path d="M56.706,44.961L65.67,44.961L65.67,20.098L72.663,20.098L72.663,12.329L65.67,12.329L65.67,11.851C65.67,8.942 67.364,7.488 70.751,7.488C71.308,7.488 71.966,7.548 72.723,7.667L72.723,0.017C71.806,-0.182 70.751,-0.282 69.555,-0.282C65.491,-0.282 62.324,0.774 60.053,2.886C57.821,4.998 56.706,7.986 56.706,11.851L56.706,12.329L51.207,12.329L51.207,20.098L56.706,20.098L56.706,44.961Z" fill="#000000"/>
<path d="M77.274,44.961L86.239,44.961L86.239,27.39C86.239,24.959 86.916,23.086 88.271,21.772C89.626,20.417 91.399,19.74 93.59,19.74L96.399,19.74L96.399,11.97L94.487,11.97C92.495,11.97 90.722,12.349 89.168,13.106C87.654,13.823 86.478,15.198 85.641,17.23L85.641,12.329L77.274,12.329L77.274,44.961Z" fill="#000000"/>
<path d="M105.408,58.229C111.385,58.229 115.708,54.822 118.378,48.009L132.363,12.329L122.74,12.329L115.031,33.306L107.321,12.329L97.699,12.329L110.548,44.961L109.951,46.335C109.472,47.411 108.855,48.367 108.098,49.204C107.341,50.041 106.086,50.459 104.333,50.459C102.898,50.459 101.544,50.26 100.269,49.861L100.269,57.213C100.946,57.571 101.723,57.83 102.599,57.989C103.516,58.149 104.452,58.229 105.408,58.229Z" fill="#000000"/>
</svg>
