<svg width="88" height="30" viewBox="0 0 88 30" fill="none" xmlns="http://www.w3.org/2000/svg" xmlns:xlink="http://www.w3.org/1999/xlink">
<path d="M33.01,0.335L21.415,28.541L13.85,28.541L8.144,6.032C7.798,4.645 7.497,4.137 6.443,3.553C4.723,2.601 1.883,1.709 -0.617,1.155L-0.447,0.335L11.731,0.335C13.283,0.335 14.678,1.389 15.031,3.211L18.044,19.533L25.492,0.335L33.01,0.335ZM62.652,19.332C62.683,11.887 52.556,11.477 52.625,8.152C52.647,7.14 53.592,6.064 55.661,5.789C56.686,5.652 59.512,5.548 62.716,7.051L63.973,1.07C62.251,0.433 60.036,-0.18 57.279,-0.18C50.205,-0.18 45.227,3.654 45.185,9.144C45.139,13.204 48.738,15.47 51.45,16.819C54.239,18.201 55.175,19.089 55.165,20.325C55.145,22.217 52.94,23.052 50.879,23.085C47.282,23.142 45.195,22.093 43.531,21.304L42.234,27.483C43.906,28.265 46.992,28.948 50.192,28.982C57.711,28.982 62.629,25.196 62.652,19.332ZM81.332,28.541L87.951,28.541L82.173,0.335L76.064,0.335C74.69,0.335 73.531,1.15 73.018,2.404L62.279,28.541L69.793,28.541L71.286,24.328L80.468,24.328L81.332,28.541ZM73.346,18.547L77.113,7.957L79.281,18.547L73.346,18.547ZM43.236,0.335L37.318,28.541L30.162,28.541L36.082,0.335L43.236,0.335Z" transform="rotate(0 43.667 14.401)" fill="#FFFFFF"/>
</svg>
