<svg width="64" height="30" viewBox="0 0 64 30" fill="none" xmlns="http://www.w3.org/2000/svg" xmlns:xlink="http://www.w3.org/1999/xlink">
<path d="M6.01,22.963C7.003,22.963 7.881,22.782 8.645,22.419C9.409,22.037 9.991,21.464 10.392,20.7L10.392,22.62L14.402,22.62L14.402,6.981L10.105,6.981L10.105,16.118C10.105,17.015 9.838,17.741 9.304,18.295C8.769,18.829 8.081,19.097 7.241,19.097C6.401,19.097 5.714,18.829 5.179,18.295C4.644,17.741 4.377,17.015 4.377,16.118L4.377,6.981L0.081,6.981L0.081,16.461C0.081,18.409 0.587,19.984 1.599,21.187C2.63,22.371 4.1,22.963 6.01,22.963Z" transform="rotate(0 31.606 14.958)" fill="#FFFFFF"/>
<path d="M17.542,5.578L21.838,5.578L21.838,1.281L17.542,1.281L17.542,5.578ZM17.542,22.62L21.838,22.62L21.838,6.981L17.542,6.981L17.542,22.62Z" transform="rotate(0 31.606 14.958)" fill="#FFFFFF"/>
<path d="M26.872,22.62L31.169,22.62L31.169,10.704L34.52,10.704L34.52,6.981L31.169,6.981L31.169,6.752C31.169,5.358 31.98,4.661 33.603,4.661C33.871,4.661 34.186,4.69 34.549,4.747L34.549,1.081C34.109,0.985 33.603,0.938 33.031,0.938C31.083,0.938 29.565,1.444 28.476,2.456C27.407,3.468 26.872,4.9 26.872,6.752L26.872,6.981L24.237,6.981L24.237,10.704L26.872,10.704L26.872,22.62Z" transform="rotate(0 31.606 14.958)" fill="#FFFFFF"/>
<path d="M36.73,22.62L41.026,22.62L41.026,14.199C41.026,13.034 41.351,12.137 42,11.506C42.649,10.857 43.499,10.533 44.549,10.533L45.895,10.533L45.895,6.809L44.979,6.809C44.024,6.809 43.174,6.991 42.43,7.353C41.704,7.697 41.141,8.356 40.74,9.33L40.74,6.981L36.73,6.981L36.73,22.62Z" transform="rotate(0 31.606 14.958)" fill="#FFFFFF"/>
<path d="M50.213,28.978C53.077,28.978 55.149,27.346 56.428,24.08L63.13,6.981L58.519,6.981L54.824,17.034L51.129,6.981L46.518,6.981L52.676,22.62L52.39,23.278C52.16,23.794 51.864,24.252 51.502,24.653C51.139,25.054 50.537,25.255 49.697,25.255C49.01,25.255 48.361,25.159 47.75,24.968L47.75,28.491C48.074,28.663 48.447,28.787 48.867,28.864C49.306,28.94 49.755,28.978 50.213,28.978Z" transform="rotate(0 31.606 14.958)" fill="#FFFFFF"/>
</svg>
