<svg width="134" height="60" viewBox="0 0 134 60" fill="none" xmlns="http://www.w3.org/2000/svg" xmlns:xlink="http://www.w3.org/1999/xlink">
<path d="M13.173,46.26C15.244,46.26 17.077,45.882 18.671,45.125C20.265,44.328 21.48,43.132 22.317,41.539L22.317,45.543L30.684,45.543L30.684,12.911L21.719,12.911L21.719,31.976C21.719,33.849 21.161,35.363 20.046,36.518C18.93,37.634 17.496,38.192 15.743,38.192C13.989,38.192 12.555,37.634 11.439,36.518C10.324,35.363 9.766,33.849 9.766,31.976L9.766,12.911L0.801,12.911L0.801,32.693C0.801,36.758 1.857,40.045 3.969,42.555C6.12,45.025 9.188,46.26 13.173,46.26Z" fill="#000000"/>
<path d="M37.236,9.983L46.201,9.983L46.201,1.018L37.236,1.018L37.236,9.983ZM37.236,45.543L46.201,45.543L46.201,12.911L37.236,12.911L37.236,45.543Z" fill="#000000"/>
<path d="M56.706,45.543L65.67,45.543L65.67,20.681L72.663,20.681L72.663,12.911L65.67,12.911L65.67,12.433C65.67,9.524 67.364,8.07 70.751,8.07C71.308,8.07 71.966,8.13 72.723,8.249L72.723,0.599C71.806,0.4 70.751,0.301 69.555,0.301C65.491,0.301 62.324,1.356 60.053,3.468C57.821,5.58 56.706,8.568 56.706,12.433L56.706,12.911L51.207,12.911L51.207,20.681L56.706,20.681L56.706,45.543Z" fill="#000000"/>
<path d="M77.274,45.543L86.239,45.543L86.239,27.972C86.239,25.542 86.916,23.669 88.271,22.354C89.626,20.999 91.399,20.322 93.59,20.322L96.399,20.322L96.399,12.552L94.487,12.552C92.495,12.552 90.722,12.931 89.168,13.688C87.654,14.405 86.478,15.78 85.641,17.812L85.641,12.911L77.274,12.911L77.274,45.543Z" fill="#000000"/>
<path d="M105.408,58.811C111.385,58.811 115.708,55.404 118.378,48.591L132.363,12.911L122.74,12.911L115.031,33.889L107.321,12.911L97.699,12.911L110.548,45.543L109.951,46.918C109.472,47.993 108.855,48.95 108.098,49.786C107.341,50.623 106.086,51.041 104.333,51.041C102.898,51.041 101.544,50.842 100.269,50.444L100.269,57.795C100.946,58.154 101.723,58.413 102.599,58.572C103.516,58.731 104.452,58.811 105.408,58.811Z" fill="#000000"/>
</svg>
