<svg width="40" height="36" viewBox="0 0 40 36" fill="none" xmlns="http://www.w3.org/2000/svg" xmlns:xlink="http://www.w3.org/1999/xlink">
<path d="M29.879,-0.582C32.561,-0.582 35.141,0.478 37.039,2.38C38.939,4.278 40.001,6.838 40.001,9.518L40.001,25.318C40.001,30.898 35.461,35.418 29.879,35.418L10.121,35.418C4.539,35.418 0.001,30.898 0.001,25.318L0.001,9.518C0.001,3.938 4.519,-0.582 10.121,-0.582L29.879,-0.582ZM32.141,9.818C31.721,9.796 31.321,9.938 31.019,10.218L22.001,17.418C20.841,18.38 19.179,18.38 18.001,17.418L9.001,10.218C8.379,9.758 7.519,9.818 7.001,10.358C6.461,10.898 6.401,11.758 6.859,12.358L7.121,12.618L16.221,19.718C17.341,20.598 18.699,21.078 20.121,21.078C21.539,21.078 22.921,20.598 24.039,19.718L33.061,12.498L33.221,12.338C33.699,11.758 33.699,10.918 33.199,10.338C32.921,10.04 32.539,9.858 32.141,9.818Z" fill="#FF5555"/>
</svg>
